<svg width="139" height="136" viewBox="0 0 139 136" fill="none" xmlns="http://www.w3.org/2000/svg">
<path d="M69.3052 64.1094C53.3052 64.1094 48.3052 67.6095 48.3052 67.6095C48.3052 67.6095 33.8052 50.6094 24.3052 54.6094C14.8052 58.6094 28.8051 94.1095 28.8051 94.1095C25.8051 111.11 30.5 135 69 135" stroke="black" stroke-width="2"/>
<path d="M69 64.1094C85 64.1094 90 67.6095 90 67.6095C90 67.6095 104.5 50.6094 114 54.6094C123.5 58.6094 109.5 94.1095 109.5 94.1095C112.5 111.11 107.5 135 69 135" stroke="black" stroke-width="2"/>
<rect x="50" y="96" width="38" height="22" rx="8" stroke="black" stroke-width="2"/>
<path d="M69.6 35.2C47.4 35.2 47.5 43 47.5 43C47.5 43 39.6 34.6 23.4 34.6C7.2 34.6 1 43 1 43C3.8 32.6 15.84 1 69.6 1" stroke="black" stroke-width="2"/>
<path d="M69 35.2C91.2 35.2 91.1 43 91.1 43C91.1 43 99 34.6 115.2 34.6C131.4 34.6 137.6 43 137.6 43C134.8 32.6 122.76 1 69 1" stroke="black" stroke-width="2"/>
<rect x="57" y="101" width="8" height="12" rx="3" stroke="black" stroke-width="2"/>
<rect x="73" y="101" width="8" height="12" rx="3" stroke="black" stroke-width="2"/>
</svg>
